<svg width="901" height="199" viewBox="0 0 901 199" fill="none" xmlns="http://www.w3.org/2000/svg">
<path fill-rule="evenodd" clip-rule="evenodd" d="M172.42 101.051H171.49V100.124H172.42V101.051ZM169.629 91.7764C168.698 92.7039 167.768 92.7039 166.837 91.7764C164.976 88.994 162.185 85.284 159.393 82.5016C159.393 81.5741 159.393 80.6466 160.324 80.6466C166.837 80.6466 169.629 82.5016 170.559 84.3565C171.49 85.284 171.49 88.0665 169.629 91.7764ZM167.768 124.238L166.837 127.021C164.976 131.658 161.254 134.441 155.671 137.223C154.74 138.151 152.879 136.296 153.81 135.368C155.671 129.803 156.601 123.311 157.532 115.891C157.532 114.964 158.462 113.109 159.393 112.181C161.254 110.326 163.115 108.471 164.976 106.616C165.907 105.689 167.768 105.689 167.768 107.544C169.629 114.036 169.629 119.601 167.768 124.238ZM154.74 145.571L152.879 147.425C151.949 148.353 151.018 149.28 150.088 150.208L149.157 149.28V148.353C149.157 147.425 150.088 146.498 150.088 145.571H151.018C151.949 145.571 152.879 144.643 153.81 144.643L154.74 145.571ZM144.505 140.006C142.643 140.006 140.782 140.933 137.991 140.933C132.408 140.933 126.824 140.933 121.241 140.006V138.151C122.172 137.223 124.033 137.223 124.963 136.296C134.269 131.658 142.643 126.093 150.088 120.528L151.018 121.456C150.088 127.948 148.227 133.513 146.366 139.078C146.366 139.078 145.435 140.006 144.505 140.006ZM141.713 148.353C137.06 157.628 130.547 163.193 124.963 163.193C118.45 163.193 111.936 156.7 107.283 145.571L108.214 143.716H109.144C117.519 146.498 126.824 147.425 134.269 147.425C135.199 147.425 136.13 147.425 137.06 147.425C137.991 147.425 138.921 147.425 139.852 147.425C141.713 146.498 142.643 147.425 141.713 148.353ZM112.866 166.903C110.075 166.903 107.283 167.83 104.492 167.83C91.4642 167.83 78.4368 164.12 67.2704 156.7C67.2704 155.773 67.2704 154.845 68.201 154.845H69.1315C71.9231 154.845 74.7147 153.918 78.4368 153.918C85.8811 152.99 93.3253 150.208 101.7 147.425L103.561 148.353C106.353 155.773 111.005 162.265 114.728 165.048C114.728 165.048 113.797 166.903 112.866 166.903ZM73.7841 118.673C79.3673 114.036 86.8116 108.471 94.2558 104.761C94.2558 114.964 95.1864 124.238 97.0474 132.586C94.2558 131.658 91.4642 129.803 88.6726 128.876C84.02 126.093 78.4368 122.383 73.7841 118.673ZM55.1735 145.571C53.3125 142.788 55.1735 136.296 65.4094 127.021C66.3399 126.093 66.3399 124.238 65.4094 123.311L64.4788 122.383C63.5483 121.456 62.6178 121.456 61.6872 122.383C57.0346 127.021 53.3125 131.658 51.4514 135.368C50.5209 136.296 49.5903 136.296 48.6598 135.368C41.2156 124.238 37.4934 111.254 37.4934 98.2688C37.4934 93.6314 38.424 88.994 39.3545 84.3565H40.285C40.285 89.9214 43.0766 94.5589 45.8682 99.1963C50.5209 105.689 56.1041 112.181 62.6178 117.746C64.4788 119.601 67.2704 121.456 70.062 123.311C74.7147 127.021 80.2979 130.731 86.8116 133.513C89.6032 134.441 92.3948 136.296 94.2558 137.223C96.1169 138.151 97.0474 138.151 98.9085 137.223C99.839 136.296 101.7 136.296 102.631 135.368C103.561 135.368 104.492 134.441 104.492 132.586C102.631 124.238 101.7 114.036 100.77 103.834V101.979V101.051V99.1963C100.77 97.3413 100.77 95.4864 100.77 93.6314C101.7 81.5741 103.561 69.5168 106.353 60.2419C106.353 59.3145 106.353 58.387 105.422 58.387C105.422 58.387 104.492 57.4595 103.561 57.4595C102.631 57.4595 101.7 57.4595 101.7 58.387C97.978 69.5168 95.1864 81.5741 95.1864 94.5589C95.1864 96.4138 94.2558 97.3413 92.3948 98.2688C84.9505 102.906 77.5063 107.544 70.9926 113.109C70.062 114.036 68.201 114.036 66.3399 113.109C60.7567 107.544 55.1735 101.979 51.4514 95.4864C44.0072 83.4291 42.1461 72.2992 45.8682 63.9519C46.7988 63.0244 46.7988 62.0969 47.7293 61.1694C52.3819 54.677 62.6178 50.9671 74.7147 50.0396H77.5063C84.9505 50.0396 93.3253 50.9671 101.7 53.7495H102.631C104.492 54.677 106.353 55.6045 108.214 56.532L110.075 57.4595H111.005C114.728 59.3145 119.38 61.1694 123.102 63.0244C130.547 66.7343 137.991 72.2992 144.505 76.9367C132.408 79.7191 118.45 85.284 104.492 91.7764L103.561 93.6314C103.561 94.5589 103.561 96.4138 103.561 97.3413C103.561 98.2688 104.492 99.1963 105.422 98.2688C119.38 90.8489 133.338 85.284 144.505 82.5016C146.366 81.5741 148.227 79.7191 148.227 77.8641C148.227 76.0092 148.227 75.0817 147.296 73.2267C147.296 71.3718 146.366 69.5168 144.505 68.5893C138.921 63.9519 132.408 60.2419 125.894 57.4595C121.241 55.6045 116.589 52.8221 112.866 51.8946C111.936 51.8946 111.936 50.0396 111.936 49.1121C116.589 40.7648 122.172 36.1273 127.755 36.1273C134.269 36.1273 140.782 42.6197 145.435 53.7495C148.227 59.3145 150.088 65.8069 151.018 73.2267C151.949 76.0092 151.949 79.7191 151.949 82.5016C152.879 88.0665 152.879 93.6314 152.879 99.1963C152.879 102.906 152.879 106.616 151.949 110.326C143.574 116.818 133.338 124.238 121.241 129.803C117.519 131.658 113.797 133.513 110.075 135.368H109.144C106.353 137.223 102.631 138.151 99.839 139.078H98.9085H97.978L96.1169 140.006L95.1864 142.788C88.6726 144.643 82.1589 146.498 76.5757 148.353C62.6178 150.208 56.1041 148.353 55.1735 145.571ZM64.4788 43.5472C76.5757 35.1999 90.5337 31.4899 104.492 31.4899C108.214 31.4899 111.936 31.4899 115.658 32.4174C116.589 32.4174 116.589 34.2724 116.589 34.2724C112.866 37.0548 109.144 40.7648 106.353 46.3297C105.422 47.2572 104.492 48.1846 102.631 48.1846C93.3253 45.4022 83.0895 44.4747 74.7147 44.4747C70.9926 44.4747 68.201 44.4747 65.4094 45.4022L64.4788 43.5472ZM158.462 93.6314L160.324 92.7039L162.185 95.4864C163.115 96.4138 163.115 97.3413 164.046 98.2688V100.124C163.115 101.051 162.185 101.979 161.254 102.906L160.324 103.834L159.393 102.906C159.393 101.979 159.393 101.051 159.393 99.1963C158.462 98.2688 158.462 95.4864 158.462 93.6314ZM151.949 50.0396L152.879 50.9671C159.393 57.4595 164.976 64.8794 167.768 73.2267C167.768 74.1542 167.768 75.0817 166.837 75.0817C164.976 75.0817 163.115 74.1542 160.324 74.1542C158.462 74.1542 157.532 73.2267 156.601 71.3718C155.671 63.9519 153.81 57.4595 151.018 50.9671V50.0396H151.949ZM177.073 83.4291C174.282 69.5168 166.837 56.532 156.601 46.3297C142.643 32.4174 124.033 24.9975 104.492 24.9975C84.9505 24.9975 66.3399 32.4174 51.4514 46.3297C48.6598 50.0396 44.9377 53.7495 43.0766 57.4595C42.1461 58.387 41.2156 60.2419 40.285 61.1694C33.7713 72.2992 30.0492 85.284 30.0492 99.1963C30.0492 118.673 37.4934 137.223 51.4514 152.063C65.4094 166.903 84.9505 173.395 104.492 173.395C124.033 173.395 142.643 165.975 157.532 152.063C164.046 145.571 169.629 138.151 173.351 129.803C173.351 128.876 174.282 127.948 174.282 127.021C177.073 117.746 178.934 108.471 178.934 99.1963C178.934 93.6314 178.004 88.994 177.073 83.4291Z" fill="url(#paint0_linear_50_3)"/>
<path d="M172.42 100.124L171.49 101.979L172.42 101.051V100.124L171.49 101.051H172.42V100.124H171.49V101.979H174.281V100.124V99.1963H172.42H171.49H170.559V101.051V101.979V102.906H172.42V100.124ZM167.768 91.7764C164.976 88.0665 163.115 85.284 160.323 82.5016C165.907 82.5016 168.698 84.3565 169.629 85.284V86.2115C169.629 87.139 169.629 88.9939 167.768 91.7764L170.559 92.7039C172.42 89.9214 172.42 88.0665 172.42 86.2115C172.42 85.284 172.42 84.3565 171.49 83.429C170.559 80.6466 166.837 79.7191 160.323 79.7191C158.462 79.7191 157.532 80.6466 157.532 82.5016L158.462 84.3565C161.254 87.139 163.115 89.9214 164.976 93.6314C165.907 94.5589 166.837 94.5589 167.768 94.5589C168.698 94.5589 169.629 93.6314 170.559 92.7039L167.768 91.7764ZM166.837 123.311L165.907 126.093C164.046 129.803 160.323 133.513 155.671 135.368C157.532 128.876 158.462 122.383 159.393 115.891C159.393 114.964 160.323 114.036 160.323 113.109C162.184 111.254 164.046 109.399 165.907 107.544C166.837 110.326 166.837 113.109 166.837 115.891C167.768 119.601 167.768 121.456 166.837 123.311L169.629 124.238C170.559 121.456 170.559 119.601 170.559 116.818C170.559 114.036 169.629 110.326 168.698 107.544C168.698 106.616 166.837 105.689 165.907 105.689L164.046 106.616C162.184 108.471 160.323 110.326 158.462 112.181C157.532 113.109 156.601 114.964 156.601 115.891C155.671 122.383 154.74 128.876 152.879 135.368V136.296C152.879 138.151 153.81 139.078 155.671 139.078H156.601C162.184 136.296 165.907 132.586 168.698 127.948L169.629 125.166L166.837 123.311ZM152.879 144.643L151.018 146.498C150.088 147.425 149.157 148.353 148.227 149.28L149.157 150.208L150.088 149.28L149.157 148.353L148.227 149.28L149.157 150.208V149.28C149.157 148.353 150.088 147.425 150.088 146.498V145.571L151.018 146.498H151.949L151.018 145.571V146.498C151.949 146.498 152.879 145.571 153.81 145.571L152.879 144.643L151.949 145.571L152.879 146.498L155.671 144.643L154.74 143.716L153.81 142.788H152.879C151.949 142.788 151.018 143.716 150.088 143.716L149.157 144.643C149.157 145.571 148.227 146.498 148.227 147.425V148.353L147.296 149.28L149.157 151.135L150.088 152.063L151.018 151.135C151.949 150.208 152.879 149.28 153.81 148.353L155.671 146.498L152.879 144.643ZM144.504 139.078C142.643 139.078 140.782 140.006 137.991 140.006H135.199C130.546 140.006 125.894 139.078 120.311 139.078V140.006H121.241V138.151H120.311L121.241 139.078C122.172 138.151 124.033 138.151 124.963 137.223C134.269 132.586 142.643 127.021 150.088 121.456L149.157 120.528L148.227 121.456L149.157 122.383L150.088 121.456H149.157C148.227 127.021 146.365 132.586 144.504 139.078V141.861C146.365 141.861 147.296 140.933 147.296 139.078C149.157 133.513 151.018 127.948 151.949 121.456V120.528L150.088 119.601L149.157 118.673L148.227 119.601C140.782 125.166 132.407 129.803 123.102 135.368C122.172 136.296 120.311 136.296 119.38 137.223H118.45V140.006V140.933H119.38C124.963 141.861 129.616 142.788 134.269 142.788H137.06C138.921 142.788 141.713 142.788 143.574 141.861L144.504 139.078ZM140.782 148.353C136.13 157.628 130.546 162.265 125.894 162.265C120.311 162.265 114.727 156.7 110.075 145.571H108.214H109.144L110.075 143.716L109.144 142.788V143.716H110.075C119.38 146.498 127.755 147.425 136.13 147.425C137.06 147.425 137.991 147.425 138.921 147.425C138.921 148.353 139.852 148.353 140.782 148.353L143.574 149.28V148.353C143.574 147.425 142.643 145.571 140.782 145.571C139.852 145.571 138.921 145.571 137.991 145.571C137.06 145.571 136.13 145.571 135.199 145.571C126.824 145.571 118.45 144.643 110.075 141.861H109.144H108.214L107.283 144.643V145.571V146.498C111.936 157.628 118.45 165.048 125.894 165.048C132.407 165.048 138.921 159.483 143.574 149.28L140.782 148.353ZM112.866 165.048C110.075 165.048 107.283 165.975 104.492 165.975C91.4641 165.975 79.3672 162.265 68.2009 155.773H69.1314H70.0619H68.2009H69.1314C71.923 155.773 74.7146 154.845 78.4367 154.845C85.881 153.918 93.3252 151.135 101.7 148.353L100.769 147.425L99.8389 148.353L101.7 149.28C104.492 155.773 108.214 162.265 112.866 165.048V167.83C113.797 167.83 114.727 166.903 114.727 165.048V164.12C111.005 160.41 106.353 154.845 103.561 147.425V146.498L100.769 145.571H99.8389H98.9084C90.5336 148.353 83.0894 151.135 76.5756 152.063C73.784 152.99 70.0619 152.99 67.2703 152.99H66.3398C65.4093 152.99 64.4787 153.918 64.4787 154.845L67.2703 157.628C78.4367 165.048 91.4641 168.758 104.492 168.758C107.283 168.758 110.075 168.758 113.797 167.83L112.866 165.048ZM74.7146 120.528C80.2978 115.891 87.742 111.254 95.1863 106.616L94.2557 104.761H93.3252C93.3252 114.964 94.2557 124.238 96.1168 132.586H97.0473L97.9779 131.658C95.1863 129.803 92.3947 128.876 89.6031 127.021C84.0199 124.238 79.3672 121.456 74.7146 117.746L72.8535 119.601C77.5062 123.311 83.0894 126.093 88.6725 128.876C91.4641 130.731 94.2557 131.658 97.0473 132.586L99.8389 133.513L98.9084 130.731C97.0473 122.383 96.1168 113.109 96.1168 102.906V100.124L94.2557 103.834C85.8809 108.471 79.3672 113.109 72.8535 117.746L74.7146 120.528ZM56.104 144.643V143.716C56.104 140.933 58.8956 135.368 66.3398 127.948C66.3398 127.021 67.2703 126.093 67.2703 125.166C67.2703 124.238 66.3398 123.311 65.4093 122.383L64.4787 121.456L61.6871 120.528C60.7566 120.528 59.8261 120.528 58.8956 121.456C54.2429 127.021 50.5208 131.658 48.6597 136.296C41.2155 125.166 37.4933 113.109 37.4933 99.1963C37.4933 94.5589 38.4239 89.9214 39.3544 85.284H38.4239V86.2115H39.3544V85.284H38.4239C39.3544 89.9214 41.2155 95.4863 44.9376 100.124C49.5902 106.616 55.1734 113.109 61.6871 118.673C63.5482 120.528 66.3398 122.383 69.1314 124.238C74.7146 127.948 80.2978 131.658 85.8809 134.441C88.6725 135.368 91.4641 137.223 93.3252 138.151C94.2557 138.151 95.1863 139.078 96.1168 139.078C97.0473 139.078 97.9779 139.078 98.9084 138.151C99.8389 137.223 101.7 137.223 102.631 136.296C104.492 135.368 105.422 134.441 105.422 132.586V131.658C103.561 123.311 102.631 113.109 101.7 103.834V101.979L99.8389 102.906L100.769 103.834H101.7V101.979V101.051H100.769V101.979H101.7V99.1963C101.7 97.3413 101.7 95.4863 101.7 93.6314V90.8489L99.8389 92.7039L100.769 93.6314H101.7C102.631 81.5741 104.492 70.4443 107.283 60.2419V59.3144C107.283 58.387 106.353 56.532 105.422 56.532C105.422 56.532 104.492 56.532 103.561 56.532H102.631C101.7 56.532 99.8389 57.4595 99.8389 58.387C96.1168 69.5168 94.2557 81.5741 93.3252 95.4863C93.3252 96.4138 92.3947 97.3413 91.4641 98.2688C84.0199 102.906 76.5756 107.544 70.0619 113.109H69.1314L67.2703 112.181C61.6871 106.616 56.104 101.051 52.3818 95.4863C47.7292 88.0665 44.9376 80.6466 44.9376 74.1542C44.9376 70.4443 45.8681 67.6618 46.7987 64.8794C47.7292 63.9519 48.6597 63.0244 48.6597 62.0969C53.3124 55.6045 62.6177 51.8946 74.7146 51.8946H77.5062C84.9504 51.8946 93.3252 52.8221 101.7 55.6045H102.631L103.561 54.677L101.7 53.7495V54.677H102.631V53.7495H101.7L100.769 54.677L102.631 55.6045C104.492 56.532 106.353 56.532 108.214 57.4595H109.144L110.075 56.532H108.214V57.4595L110.075 58.387H111.005L111.936 57.4595L110.075 56.532L109.144 57.4595L111.005 58.387C114.727 60.2419 118.45 62.0969 123.102 63.9519C130.546 67.6618 137.991 72.2992 144.504 77.8641L145.435 76.9367V76.0092C132.407 77.8641 118.45 83.429 104.492 90.8489L102.631 92.7039C102.631 93.6314 102.631 95.4863 102.631 96.4138C102.631 99.1963 103.561 100.124 104.492 100.124H105.422V98.2688L106.353 99.1963C120.311 91.7764 134.269 86.2115 145.435 83.429C148.227 82.5016 150.088 80.6466 150.088 77.8641V76.9367C150.088 75.0817 149.157 74.1542 149.157 72.2992C149.157 70.4443 147.296 67.6618 145.435 66.7343C139.852 62.0969 133.338 58.387 126.824 54.677C122.172 52.8221 117.519 50.0396 112.866 48.1846C117.519 39.8373 123.102 36.1273 126.824 36.1273C132.407 36.1273 137.991 41.6922 142.643 52.8221C144.504 58.387 146.365 64.8794 148.227 72.2992H149.157H151.018L148.227 69.5168L149.157 73.2267C150.088 76.0092 150.088 79.7191 150.088 82.5016H151.018V81.5741L149.157 82.5016L151.018 84.3565L151.949 83.429H151.018C151.018 88.0665 151.949 92.7039 151.949 97.3413C151.949 98.2688 151.949 99.1963 151.949 100.124C151.949 103.834 151.949 107.544 151.018 111.254H151.949L151.018 110.326C142.643 116.818 132.407 124.238 121.241 129.803C117.519 131.658 113.797 133.513 110.075 135.368H109.144H108.214H107.283C104.492 136.296 100.769 138.151 97.9779 139.078L96.1168 140.006L97.0473 140.933L97.9779 140.006L97.0473 139.078H96.1168H95.1863L93.3252 140.006L91.4641 140.933L95.1863 142.788V140.933H94.2557H93.3252C87.742 143.716 82.1588 145.571 76.5756 146.498C71.923 147.425 68.2009 147.425 65.4093 147.425C59.8261 147.425 57.0345 145.571 56.104 144.643L53.3124 145.571C55.1734 148.353 58.8956 149.28 64.4787 149.28C67.2703 149.28 70.9925 149.28 75.6451 148.353C81.2283 147.425 87.742 145.571 94.2557 142.788H95.1863L94.2557 143.716H95.1863H96.1168L97.9779 142.788L99.8389 141.861H100.769H101.7L103.561 140.933L102.631 140.006L101.7 140.933L102.631 141.861C105.422 140.933 109.144 139.078 111.936 138.151L109.144 136.296V137.223H110.075L111.005 136.296C114.727 134.441 118.45 132.586 122.172 130.731C133.338 124.238 144.504 117.746 152.879 111.254V110.326C152.879 106.616 153.81 102.906 153.81 99.1963C153.81 98.2688 153.81 97.3413 153.81 96.4138C153.81 91.7764 153.81 87.139 152.879 82.5016V81.5741L151.949 80.6466L151.018 81.5741L151.949 82.5016H152.879V81.5741C152.879 77.8641 151.949 75.0817 151.949 72.2992H151.018L150.088 73.2267L152.879 76.0092L151.949 72.2992C151.018 64.8794 149.157 58.387 146.365 52.8221C141.713 41.6922 135.199 34.2724 127.755 34.2724C121.241 34.2724 115.658 39.8373 111.005 48.1846V50.0396C111.005 50.9671 111.936 52.8221 112.866 52.8221C117.519 54.677 122.172 56.532 125.894 58.387C132.407 62.0969 137.991 65.8068 143.574 69.5168C144.504 70.4443 145.435 72.2992 146.365 73.2267C146.365 75.0817 147.296 76.0092 147.296 77.8641C147.296 78.7916 146.365 80.6466 145.435 80.6466C132.407 84.3565 118.45 89.9214 104.492 97.3413C104.492 96.4138 104.492 94.5589 104.492 93.6314H103.561L104.492 94.5589L105.422 92.7039V91.7764L106.353 92.7039C120.311 85.284 134.269 80.6466 145.435 77.8641L148.227 76.9367L146.365 75.0817C139.852 69.5168 132.407 64.8794 124.963 61.1694C121.241 59.3144 116.588 57.4595 112.866 55.6045L111.005 57.4595L111.936 58.387L113.797 56.532L111.005 55.6045H110.075L109.144 54.677H108.214L107.283 55.6045L108.214 56.532L109.144 55.6045C107.283 53.7495 105.422 53.7495 103.561 52.8221V53.7495L104.492 54.677V53.7495L102.631 52.8221H101.7H100.769L101.7 53.7495V52.8221C93.3252 50.0396 84.9504 49.1121 77.5062 49.1121H74.7146C61.6871 49.1121 52.3818 53.7495 46.7987 61.1694C45.8681 61.1694 44.9376 62.0969 44.9376 63.0244C43.0765 66.7343 42.146 70.4443 42.146 74.1542C42.146 80.6466 44.9376 88.9939 49.5902 96.4138C53.3124 102.906 58.8956 108.471 65.4093 114.036C66.3398 114.964 67.2703 114.964 68.2009 114.964C69.1314 114.964 70.0619 114.964 70.9925 114.036C77.5062 109.399 84.0199 103.834 92.3947 99.1963C95.1863 99.1963 96.1168 97.3413 96.1168 94.5589C97.0473 81.5741 98.9084 69.5168 102.631 58.387C103.561 58.387 104.492 59.3144 105.422 59.3144C102.631 69.5168 99.8389 81.5741 99.8389 93.6314V96.4138L101.7 95.4863L100.769 93.6314H99.8389C99.8389 95.4863 99.8389 97.3413 99.8389 99.1963V101.051H100.769V100.124H99.8389V101.051V101.979V103.834V105.689L101.7 104.761L100.769 103.834H99.8389C99.8389 114.036 100.769 124.238 103.561 132.586L102.631 134.441C100.769 135.368 99.8389 136.296 97.9779 136.296H96.1168H95.1863C92.3947 135.368 90.5336 133.513 87.742 132.586C82.1588 129.803 76.5756 126.093 70.9925 122.383C68.2009 120.528 66.3398 118.673 63.5482 116.818C57.0345 111.254 51.4513 104.761 46.7987 98.2688C44.0071 93.6314 41.2155 88.9939 40.2849 84.3565V83.429H37.4933H36.5628V84.3565C35.6323 88.9939 34.7018 94.5589 34.7018 99.1963C34.7018 113.109 38.4239 126.093 45.8681 137.223C46.7987 138.151 47.7292 138.151 48.6597 138.151C49.5902 138.151 50.5208 137.223 51.4513 136.296C53.3124 132.586 56.104 127.948 60.7566 123.311H61.6871H62.6177L63.5482 124.238V125.166V126.093C56.104 133.513 53.3124 140.006 53.3124 143.716C53.3124 144.643 53.3124 145.571 54.2429 146.498L56.104 144.643ZM65.4093 44.4747C76.5756 37.0548 90.5336 32.4174 104.492 32.4174C108.214 32.4174 111.936 32.4174 115.658 33.3449C111.936 36.1273 108.214 39.8373 105.422 45.4022L103.561 46.3297H102.631C94.2557 44.4747 85.8809 42.6197 77.5062 42.6197C76.5756 42.6197 75.6451 42.6197 74.7146 42.6197C70.9925 42.6197 68.2009 42.6197 65.4093 43.5472V44.4747H66.3398V43.5472L63.5482 44.4747L64.4787 46.3297V47.2571H65.4093C68.2009 46.3297 70.9925 46.3297 74.7146 46.3297C75.6451 46.3297 76.5756 46.3297 77.5062 46.3297C85.8809 46.3297 94.2557 47.2571 102.631 50.0396H103.561C105.422 50.0396 106.353 49.1121 107.283 47.2571C110.075 41.6922 113.797 37.9823 116.588 35.1998L117.519 33.3449C117.519 32.4174 116.588 31.4899 115.658 30.5624C111.936 29.6349 108.214 29.6349 104.492 29.6349C89.6031 29.6349 75.6451 34.2724 64.4787 42.6197L65.4093 44.4747ZM159.393 94.5589L160.323 96.4138C161.254 97.3413 161.254 98.2688 162.184 99.1963L163.115 98.2688H162.184V100.124H163.115L162.184 99.1963C161.254 100.124 160.323 101.051 159.393 101.979L158.462 102.906H159.393C159.393 101.979 159.393 101.051 159.393 99.1963C159.393 98.2688 159.393 97.3413 159.393 96.4138C159.393 95.4863 159.393 93.6314 159.393 92.7039H156.601C156.601 93.6314 156.601 95.4863 156.601 96.4138C156.601 97.3413 156.601 98.2688 156.601 99.1963C156.601 100.124 156.601 101.051 156.601 102.906V103.834L158.462 104.761H159.393L161.254 102.906C162.184 101.979 163.115 101.051 164.046 100.124V97.3413C163.115 96.4138 163.115 95.4863 162.184 94.5589L160.323 91.7764V90.8489L157.532 91.7764L159.393 94.5589ZM150.088 50.9671L151.018 51.8946C157.532 58.387 162.184 65.8068 165.907 74.1542C164.046 74.1542 162.184 73.2267 159.393 73.2267H158.462C157.532 73.2267 156.601 72.2992 156.601 71.3717C155.671 63.9519 152.879 56.532 151.018 50.9671V50.0396L150.088 50.9671L151.018 51.8946L151.949 50.9671L151.018 49.1121L150.088 50.0396L149.157 50.9671L150.088 52.8221C152.879 58.387 154.74 65.8068 155.671 73.2267C155.671 75.0817 158.462 76.9367 160.323 76.9367H161.254C163.115 76.9367 164.976 76.9367 166.837 76.9367C168.698 76.9367 169.629 76.0092 169.629 74.1542V73.2267C165.907 64.8794 161.254 56.532 154.74 50.0396L153.81 49.1121L150.088 50.9671ZM178.934 83.429C176.142 69.5168 168.698 56.532 158.462 45.4022C143.574 31.4899 124.963 23.1425 104.492 24.07C84.0199 24.07 65.4093 31.4899 50.5208 46.3297C47.7292 49.1121 44.0071 52.8221 41.2155 56.532C41.2155 58.387 40.2849 59.3144 39.3544 60.2419C32.8407 72.2992 28.188 85.284 29.1186 99.1963C29.1186 119.601 36.5628 138.151 51.4513 152.99C65.4093 166.903 84.9504 175.25 105.422 175.25C125.894 175.25 144.504 167.83 159.393 152.99C165.907 146.498 171.49 138.151 175.212 129.803C176.142 128.876 176.142 127.948 176.142 127.021H175.212L176.142 127.948C178.934 117.746 180.795 108.471 179.865 99.1963C180.795 93.6314 179.865 88.9939 178.934 83.429L176.142 84.3565C177.073 88.9939 178.004 94.5589 178.004 99.1963C178.004 108.471 176.142 117.746 173.351 126.093C173.351 127.021 172.42 127.948 172.42 128.876C168.698 137.223 164.046 144.643 157.532 151.135C143.574 165.048 124.963 172.468 105.422 172.468C85.8809 172.468 67.2703 165.048 53.3124 151.135C39.3544 137.223 31.9102 118.673 30.9796 99.1963C30.9796 86.2115 34.7018 73.2267 41.2155 62.0969C42.146 61.1694 42.146 60.2419 43.0765 59.3144C45.8681 55.6045 48.6597 51.8946 52.3818 48.1846C66.3398 34.2724 84.9504 26.8525 104.492 25.925C124.033 25.925 142.643 33.3449 156.601 47.2571C166.837 57.4595 173.351 69.5168 176.142 83.429H178.934Z" fill="url(#paint1_linear_50_3)"/>
<path d="M257.024 143.152C248 143.152 241.12 141.104 236.384 137.008C231.648 132.848 229.28 126.736 229.28 118.672V98.128C229.28 90.064 231.648 83.984 236.384 79.888C241.12 75.728 248 73.648 257.024 73.648C263.296 73.648 268.416 74.704 272.384 76.816C276.416 78.864 279.616 81.968 281.984 86.128L272.288 92.848C270.304 89.776 268.224 87.568 266.048 86.224C263.936 84.88 260.928 84.208 257.024 84.208C252.096 84.208 248.48 85.392 246.176 87.76C243.936 90.064 242.816 93.52 242.816 98.128V118.672C242.816 123.28 243.936 126.768 246.176 129.136C248.48 131.44 252.096 132.592 257.024 132.592C261.248 132.592 264.512 131.888 266.816 130.48C269.184 129.008 271.296 126.672 273.152 123.472L282.752 130.576C280.704 133.52 278.592 135.888 276.416 137.68C274.24 139.472 271.584 140.848 268.448 141.808C265.376 142.704 261.568 143.152 257.024 143.152ZM309.34 133.744C311.708 133.744 313.628 133.456 315.1 132.88C316.572 132.24 318.172 131.152 319.9 129.616L327.292 136.336C323.58 140.88 317.596 143.152 309.34 143.152C301.98 143.152 296.668 141.776 293.404 139.024C290.14 136.208 288.508 131.664 288.508 125.392V111.664C288.508 106.736 290.268 102.864 293.788 100.048C297.372 97.168 302.236 95.728 308.38 95.728C314.716 95.728 319.676 97.264 323.26 100.336C326.844 103.344 328.636 107.76 328.636 113.584C328.636 116.4 328.38 118.576 327.868 120.112C327.42 121.648 326.492 122.8 325.084 123.568C323.676 124.272 321.628 124.624 318.94 124.624H300.892V125.488C300.892 130.992 303.708 133.744 309.34 133.744ZM308.38 105.136C306.012 105.136 304.156 105.84 302.812 107.248C301.532 108.592 300.892 110.384 300.892 112.624V116.08H311.836C313.5 116.08 314.652 115.824 315.292 115.312C315.932 114.8 316.252 113.904 316.252 112.624C316.252 110.192 315.58 108.336 314.236 107.056C312.892 105.776 310.94 105.136 308.38 105.136ZM346.807 143.152C343.543 141.488 341.271 139.6 339.991 137.488C338.711 135.312 338.071 132.304 338.071 128.464V85.072C338.071 83.344 337.719 81.936 337.015 80.848C336.375 79.76 335.191 78.576 333.463 77.296L341.815 70C345.079 71.664 347.351 73.584 348.631 75.76C349.911 77.872 350.551 80.848 350.551 84.688V128.08C350.551 129.808 350.871 131.216 351.511 132.304C352.215 133.392 353.431 134.576 355.159 135.856L346.807 143.152ZM382.65 143.152C375.994 143.152 370.874 141.616 367.29 138.544C363.706 135.472 361.914 131.088 361.914 125.392V113.488C361.914 107.792 363.706 103.408 367.29 100.336C370.874 97.264 375.994 95.728 382.65 95.728C389.306 95.728 394.426 97.264 398.01 100.336C401.594 103.408 403.386 107.792 403.386 113.488V125.392C403.386 131.088 401.594 135.472 398.01 138.544C394.426 141.616 389.306 143.152 382.65 143.152ZM382.65 133.552C385.274 133.552 387.29 132.848 388.698 131.44C390.17 130.032 390.906 128.016 390.906 125.392V113.488C390.906 110.864 390.17 108.848 388.698 107.44C387.29 106.032 385.274 105.328 382.65 105.328C380.026 105.328 377.978 106.032 376.506 107.44C375.098 108.848 374.394 110.864 374.394 113.488V125.392C374.394 128.016 375.098 130.032 376.506 131.44C377.978 132.848 380.026 133.552 382.65 133.552ZM436.225 142L427.009 127.984L418.369 142H405.793L420.577 118.288L406.465 96.88H418.945L427.777 110.224L436.033 96.88H448.513L434.209 120.016L448.801 142H436.225ZM505.18 142C496.668 142 490.556 140.208 486.844 136.624C483.132 133.04 481.276 127.856 481.276 121.072V95.728C481.276 88.944 483.132 83.76 486.844 80.176C490.556 76.592 496.668 74.8 505.18 74.8H527.644V85.36H505.18C501.66 85.36 499.036 86.192 497.308 87.856C495.644 89.52 494.812 92.144 494.812 95.728V103.12H523.42V113.68H494.812V121.072C494.812 124.592 495.644 127.216 497.308 128.944C499.036 130.608 501.66 131.44 505.18 131.44H527.836V142H505.18ZM562.131 142L552.915 127.984L544.275 142H531.699L546.483 118.288L532.371 96.88H544.851L553.683 110.224L561.939 96.88H574.419L560.115 120.016L574.707 142H562.131ZM597.806 143.152C591.15 143.152 586.03 141.616 582.446 138.544C578.862 135.472 577.07 131.088 577.07 125.392V113.488C577.07 107.792 578.862 103.408 582.446 100.336C586.03 97.264 591.15 95.728 597.806 95.728C606.126 95.728 612.078 98.256 615.662 103.312L607.118 110.224C605.582 108.432 604.174 107.184 602.894 106.48C601.614 105.712 599.918 105.328 597.806 105.328C595.182 105.328 593.134 106.032 591.662 107.44C590.254 108.848 589.55 110.864 589.55 113.488V125.392C589.55 128.016 590.254 130.032 591.662 131.44C593.134 132.848 595.182 133.552 597.806 133.552C599.918 133.552 601.614 133.2 602.894 132.496C604.174 131.728 605.582 130.448 607.118 128.656L615.662 135.568C613.87 138.128 611.566 140.048 608.75 141.328C605.934 142.544 602.286 143.152 597.806 143.152ZM649.35 95.728C654.278 95.728 658.054 97.072 660.678 99.76C663.366 102.448 664.71 106.288 664.71 111.28V142H652.23V112.432C652.23 110.256 651.622 108.528 650.406 107.248C649.254 105.968 647.686 105.328 645.702 105.328C641.478 105.328 638.438 107.824 636.582 112.816V142H624.102V85.072C624.102 83.344 623.75 81.936 623.046 80.848C622.406 79.76 621.222 78.576 619.494 77.296L627.846 70C631.11 71.664 633.382 73.584 634.662 75.76C635.942 77.872 636.582 80.848 636.582 84.688V101.392C639.526 97.616 643.782 95.728 649.35 95.728ZM715.174 128.08C715.174 129.808 715.494 131.216 716.134 132.304C716.838 133.392 718.054 134.576 719.781 135.856L711.43 143.152C707.782 141.296 705.286 138.96 703.942 136.144C702.534 138.128 700.614 139.792 698.182 141.136C695.75 142.48 692.742 143.152 689.158 143.152C684.614 143.152 680.998 142 678.31 139.696C675.622 137.328 674.278 134 674.278 129.712C674.278 125.872 675.27 122.928 677.254 120.88C679.302 118.768 681.638 117.328 684.262 116.56C686.886 115.792 689.798 115.248 692.998 114.928L697.606 114.448C699.462 114.256 700.742 113.936 701.446 113.488C702.214 113.04 702.63 112.304 702.694 111.28C702.566 109.36 701.926 107.728 700.774 106.384C699.686 105.04 697.574 104.368 694.438 104.368C692.39 104.368 690.598 104.752 689.062 105.52C687.526 106.288 685.958 107.536 684.358 109.264L675.814 103.312C677.67 100.88 680.006 99.024 682.822 97.744C685.638 96.4 689.51 95.728 694.438 95.728C708.262 95.728 715.174 101.328 715.174 112.528V128.08ZM692.326 134.224C695.654 134.224 698.214 133.424 700.006 131.824C701.798 130.16 702.694 128.144 702.694 125.776V121.744C701.67 122.128 699.718 122.48 696.838 122.8L693.958 123.088C691.782 123.28 689.958 123.792 688.486 124.624C687.014 125.392 686.278 126.864 686.278 129.04C686.278 130.704 686.822 131.984 687.91 132.88C688.998 133.776 690.47 134.224 692.326 134.224ZM752.756 95.728C757.684 95.728 761.46 97.072 764.084 99.76C766.772 102.448 768.116 106.288 768.116 111.28V142H755.636V112.432C755.636 110.256 755.028 108.528 753.812 107.248C752.66 105.968 751.092 105.328 749.108 105.328C744.884 105.328 741.844 107.824 739.988 112.816V142H727.508V110.8C727.508 109.072 727.156 107.664 726.452 106.576C725.812 105.488 724.628 104.304 722.9 103.024L731.252 95.728C733.3 96.752 734.9 97.84 736.052 98.992C737.268 100.144 738.196 101.488 738.836 103.024C740.18 100.848 741.972 99.088 744.212 97.744C746.516 96.4 749.364 95.728 752.756 95.728ZM827.434 103.024C825.706 104.304 824.49 105.488 823.786 106.576C823.146 107.664 822.826 109.072 822.826 110.8V143.344C822.826 149.616 821.098 154.16 817.642 156.976C814.25 159.792 808.714 161.2 801.034 161.2H788.362V151.6H801.034C804.298 151.6 806.666 150.96 808.138 149.68C809.61 148.4 810.346 146.288 810.346 143.344V136.144C808.874 138.064 807.082 139.536 804.97 140.56C802.922 141.52 800.074 142 796.426 142C790.41 142 785.61 140.016 782.026 136.048C778.506 132.016 776.746 126.608 776.746 119.824V117.904C776.746 113.872 777.482 110.192 778.954 106.864C780.426 103.472 782.634 100.784 785.578 98.8C788.586 96.752 792.202 95.728 796.426 95.728C802.954 95.728 807.914 98.32 811.306 103.504C811.882 101.84 812.778 100.4 813.994 99.184C815.274 97.968 816.97 96.816 819.082 95.728L827.434 103.024ZM800.074 132.4C805.45 132.4 808.874 129.776 810.346 124.528V113.2C808.874 107.952 805.45 105.328 800.074 105.328C796.618 105.328 793.93 106.576 792.01 109.072C790.154 111.504 789.226 114.448 789.226 117.904V119.824C789.226 123.344 790.154 126.32 792.01 128.752C793.866 131.184 796.554 132.4 800.074 132.4ZM854.027 133.744C856.395 133.744 858.315 133.456 859.787 132.88C861.259 132.24 862.859 131.152 864.587 129.616L871.979 136.336C868.267 140.88 862.283 143.152 854.027 143.152C846.667 143.152 841.355 141.776 838.091 139.024C834.827 136.208 833.195 131.664 833.195 125.392V111.664C833.195 106.736 834.955 102.864 838.475 100.048C842.059 97.168 846.923 95.728 853.067 95.728C859.403 95.728 864.363 97.264 867.947 100.336C871.531 103.344 873.323 107.76 873.323 113.584C873.323 116.4 873.067 118.576 872.555 120.112C872.107 121.648 871.179 122.8 869.771 123.568C868.363 124.272 866.315 124.624 863.627 124.624H845.579V125.488C845.579 130.992 848.395 133.744 854.027 133.744ZM853.067 105.136C850.699 105.136 848.843 105.84 847.499 107.248C846.219 108.592 845.579 110.384 845.579 112.624V116.08H856.523C858.187 116.08 859.339 115.824 859.979 115.312C860.619 114.8 860.939 113.904 860.939 112.624C860.939 110.192 860.267 108.336 858.923 107.056C857.579 105.776 855.627 105.136 853.067 105.136Z" fill="white"/>
<defs>
<linearGradient id="paint0_linear_50_3" x1="55.3065" y1="64.6167" x2="139.731" y2="165.531" gradientUnits="userSpaceOnUse">
<stop offset="0.139524" stop-color="#C398FE"/>
<stop offset="0.569524" stop-color="#D2F4FE"/>
</linearGradient>
<linearGradient id="paint1_linear_50_3" x1="54.6585" y1="64.3808" x2="140.756" y2="166.957" gradientUnits="userSpaceOnUse">
<stop offset="0.139524" stop-color="#C398FE"/>
<stop offset="0.569524" stop-color="#D2F4FE"/>
</linearGradient>
</defs>
</svg>